<?xml version="1.0" standalone="no"?>
<!DOCTYPE svg PUBLIC "-//W3C//DTD SVG 20010904//EN"
 "http://www.w3.org/TR/2001/REC-SVG-20010904/DTD/svg10.dtd">
<svg version="1.0" xmlns="http://www.w3.org/2000/svg"
 width="700.000000pt" height="700.000000pt" viewBox="0 0 700.000000 700.000000"
 preserveAspectRatio="xMidYMid meet">
<metadata>
Created by potrace 1.14, written by Peter Selinger 2001-2017
</metadata>
<g transform="translate(0.000000,700.000000) scale(0.100000,-0.100000)"
fill="#000000" stroke="none">
<path d="M3218 6996 c-1 -2 -43 -7 -93 -10 -49 -4 -99 -9 -110 -11 -11 -3 -40
-7 -65 -10 -49 -5 -55 -6 -205 -36 -447 -89 -883 -276 -1270 -544 -111 -76
-96 -66 -235 -180 -144 -119 -271 -243 -433 -425 -16 -18 -64 -79 -107 -136
-282 -372 -477 -772 -589 -1206 -17 -65 -32 -128 -35 -140 -2 -13 -11 -60 -20
-104 -8 -45 -18 -103 -21 -130 -3 -27 -8 -58 -10 -69 -19 -94 -28 -550 -13
-705 31 -322 109 -665 208 -915 107 -273 214 -477 364 -700 198 -295 416 -529
733 -790 196 -161 556 -370 818 -476 176 -70 486 -164 605 -184 19 -3 42 -8
50 -10 8 -2 33 -7 55 -10 23 -3 50 -7 61 -9 11 -2 45 -7 75 -10 30 -3 64 -8
76 -10 84 -17 434 -23 603 -12 126 9 372 42 445 60 6 1 37 8 70 15 327 69 704
222 1025 416 462 280 902 725 1166 1180 16 27 37 63 46 80 18 31 144 285 159
320 75 179 169 474 193 605 2 14 9 45 14 70 10 40 17 81 28 160 2 14 6 50 10
80 3 30 7 61 10 68 15 48 22 439 10 607 -7 96 -8 115 -21 215 -8 63 -36 223
-40 230 -2 3 -6 22 -9 42 -9 58 -71 281 -95 342 -6 16 -17 26 -24 23 -43 -17
-316 -131 -337 -139 -14 -6 -27 -12 -30 -12 -5 -1 -208 -86 -265 -111 -16 -7
-142 -59 -280 -116 -405 -165 -558 -229 -589 -245 -16 -8 -33 -14 -38 -14 -4
0 -27 -9 -51 -19 -23 -11 -132 -56 -242 -101 -110 -45 -213 -88 -230 -95 -31
-14 -287 -120 -530 -220 -133 -54 -164 -67 -261 -109 l-41 -18 -1 -449 c0
-247 1 -449 4 -449 4 0 911 373 959 395 45 20 255 106 298 121 20 8 45 18 55
24 9 5 123 53 252 106 129 53 327 134 438 180 112 46 208 84 212 84 5 0 7 -10
5 -22 -2 -13 -6 -64 -10 -115 -3 -50 -8 -102 -10 -115 -2 -13 -8 -50 -14 -83
-6 -33 -13 -76 -16 -95 -3 -19 -11 -53 -16 -75 -6 -22 -13 -47 -14 -55 -44
-193 -174 -495 -303 -704 -122 -198 -320 -431 -502 -591 -173 -153 -468 -338
-660 -415 -30 -12 -68 -28 -85 -35 -33 -15 -211 -75 -235 -80 -8 -2 -42 -10
-75 -18 -63 -17 -73 -19 -200 -41 -168 -30 -475 -41 -650 -23 -648 65 -1259
386 -1681 882 -68 80 -194 251 -194 264 0 5 -4 11 -8 13 -17 6 -143 237 -196
357 -68 155 -144 390 -162 500 -3 14 -7 37 -9 51 -57 282 -58 664 -2 970 19
105 89 356 116 415 13 28 24 58 27 73 1 8 36 82 77 165 351 711 994 1214 1757
1377 30 6 71 14 90 16 19 3 42 6 50 9 13 4 58 9 192 20 63 6 346 6 398 1 25
-3 78 -8 118 -11 155 -12 422 -74 532 -122 181 -79 365 -186 474 -276 l30 -24
65 27 c37 15 138 58 226 94 88 37 178 75 200 85 22 10 124 53 226 95 l186 78
-66 66 c-105 105 -168 160 -277 244 -152 117 -446 286 -604 348 -30 12 -68 28
-85 35 -73 33 -353 119 -455 140 -85 18 -180 36 -210 41 -19 2 -44 6 -55 9
-11 2 -51 7 -90 11 -38 3 -81 8 -95 11 -29 5 -537 13 -542 9z"/>
<path d="M6425 5944 c-231 -96 -436 -181 -455 -189 -19 -7 -177 -72 -350 -145
-173 -72 -319 -132 -325 -134 -5 -1 -28 -10 -50 -20 -22 -10 -89 -38 -150 -62
-60 -25 -119 -49 -130 -54 -47 -21 -214 -90 -219 -90 -3 0 -31 -12 -63 -26
-32 -14 -67 -29 -78 -34 -11 -4 -38 -15 -60 -25 -22 -9 -101 -42 -175 -72 -74
-30 -148 -60 -165 -68 -16 -7 -125 -52 -241 -100 l-211 -87 -1 -449 -1 -450
22 7 c12 4 234 94 492 201 480 199 618 256 925 382 96 40 188 79 204 87 16 8
33 14 38 14 4 0 27 9 51 19 23 11 71 32 107 46 36 14 79 32 95 40 17 7 98 41
180 75 83 34 188 77 235 97 47 19 234 96 415 172 l330 136 1 453 c1 248 1 452
0 452 0 -1 -190 -80 -421 -176z"/>
</g>
</svg>
