<svg width="800" height="800" viewBox="0 0 800 800" fill="none" xmlns="http://www.w3.org/2000/svg">
<rect width="800" height="800" fill="#F9386A"/>
<path d="M451.598 171.132V165.132H445.598H231.244H225.244V171.132V486.792V492.792H231.244H445.598H451.598V486.792V171.132ZM176 171.132C176 139.451 200.948 114 231.244 114H445.598C475.894 114 500.842 139.451 500.842 171.132V549.924C500.842 581.604 475.894 607.055 445.598 607.055H231.244C200.948 607.055 176 581.604 176 549.924V171.132ZM286.488 549.924C286.488 561.745 295.894 571.707 307.799 571.707H369.043C380.948 571.707 390.354 561.745 390.354 549.924C390.354 538.102 380.948 528.141 369.043 528.141H307.799C295.894 528.141 286.488 538.102 286.488 549.924Z" fill="#F9386A" stroke="white" stroke-width="12"/>
<mask id="path-2-inside-1_222_115" fill="white">
<path fill-rule="evenodd" clip-rule="evenodd" d="M493.784 363.975L478.518 362.768L433.857 359.234V359.237L409.779 357.333C388.693 355.664 372.925 336.708 374.543 314.971C376.084 294.271 392.837 278.542 412.644 278.531C413.648 278.53 414.661 278.568 415.679 278.649L530.175 287.707L530.146 288.101C564.201 294.753 588.684 326.864 585.967 363.354L585.925 363.354L577.724 473.511C577.519 476.265 577.123 479.003 576.639 481.636L611.963 524.104C631.255 547.296 628.662 582.114 606.163 602L525.926 672.92C503.427 692.806 469.651 690.134 450.359 666.941L396.458 602.14H433.857C467.636 602.14 495.101 573.829 495.101 539.008V363.966L493.784 363.975Z"/>
</mask>
<path fill-rule="evenodd" clip-rule="evenodd" d="M493.784 363.975L478.518 362.768L433.857 359.234V359.237L409.779 357.333C388.693 355.664 372.925 336.708 374.543 314.971C376.084 294.271 392.837 278.542 412.644 278.531C413.648 278.53 414.661 278.568 415.679 278.649L530.175 287.707L530.146 288.101C564.201 294.753 588.684 326.864 585.967 363.354L585.925 363.354L577.724 473.511C577.519 476.265 577.123 479.003 576.639 481.636L611.963 524.104C631.255 547.296 628.662 582.114 606.163 602L525.926 672.92C503.427 692.806 469.651 690.134 450.359 666.941L396.458 602.14H433.857C467.636 602.14 495.101 573.829 495.101 539.008V363.966L493.784 363.975Z" fill="#F9386A"/>
<path d="M478.518 362.768L479.465 350.805L479.465 350.805L478.518 362.768ZM493.784 363.975L492.838 375.938L493.351 375.979L493.865 375.975L493.784 363.975ZM433.857 359.234L434.803 347.272L421.857 346.247V359.234H433.857ZM433.857 359.237L432.91 371.2L445.857 372.224V359.237H433.857ZM409.779 357.333L408.833 369.295L408.833 369.295L409.779 357.333ZM374.543 314.971L386.51 315.862L374.543 314.971ZM412.644 278.531L412.65 290.531L412.664 290.531L412.644 278.531ZM415.679 278.649L416.626 266.686L416.626 266.686L415.679 278.649ZM530.175 287.707L542.142 288.598L543.028 276.687L531.121 275.745L530.175 287.707ZM530.146 288.101L518.179 287.21L517.388 297.836L527.845 299.878L530.146 288.101ZM585.967 363.354L585.98 375.354L597.108 375.341L597.934 364.245L585.967 363.354ZM585.925 363.354L585.912 351.354L574.785 351.366L573.958 362.463L585.925 363.354ZM577.724 473.511L565.757 472.62L565.757 472.62L577.724 473.511ZM576.639 481.636L564.836 479.467L563.821 484.992L567.413 489.31L576.639 481.636ZM611.963 524.104L621.189 516.43L621.189 516.43L611.963 524.104ZM606.163 602L598.216 593.009L598.216 593.009L606.163 602ZM525.926 672.92L533.873 681.911L533.873 681.911L525.926 672.92ZM450.359 666.941L459.585 659.267L459.585 659.267L450.359 666.941ZM396.458 602.14V590.14H370.867L387.232 609.814L396.458 602.14ZM495.101 363.966H507.101V351.885L495.02 351.967L495.101 363.966ZM477.572 374.73L492.838 375.938L494.731 352.013L479.465 350.805L477.572 374.73ZM432.91 371.197L477.572 374.73L479.465 350.805L434.803 347.272L432.91 371.197ZM421.857 359.234V359.237H445.857V359.234H421.857ZM434.803 347.275L410.726 345.37L408.833 369.295L432.91 371.2L434.803 347.275ZM410.726 345.37C396.558 344.249 385.357 331.35 386.51 315.862L362.576 314.08C360.493 342.065 380.828 367.08 408.833 369.295L410.726 345.37ZM386.51 315.862C387.604 301.165 399.379 290.538 412.65 290.531L412.637 266.531C386.295 266.545 364.565 287.376 362.576 314.08L386.51 315.862ZM416.626 266.686C415.285 266.58 413.951 266.529 412.624 266.531L412.664 290.531C413.346 290.53 414.036 290.556 414.733 290.612L416.626 266.686ZM531.121 275.745L416.626 266.686L414.733 290.612L529.229 299.67L531.121 275.745ZM542.113 288.992L542.142 288.598L518.208 286.817L518.179 287.21L542.113 288.992ZM597.934 364.245C601.087 321.9 572.668 284.179 532.446 276.323L527.845 299.878C555.735 305.326 576.281 331.829 574 362.463L597.934 364.245ZM585.939 375.354L585.98 375.354L585.954 351.354L585.912 351.354L585.939 375.354ZM589.69 474.402L597.892 364.245L573.958 362.463L565.757 472.62L589.69 474.402ZM588.441 483.806C588.98 480.875 589.445 477.695 589.69 474.402L565.757 472.62C565.592 474.835 565.266 477.132 564.836 479.467L588.441 483.806ZM621.189 516.43L585.864 473.963L567.413 489.31L602.737 531.777L621.189 516.43ZM614.11 610.992C641.508 586.776 644.597 544.571 621.189 516.43L602.737 531.777C617.913 550.021 615.817 577.452 598.216 593.009L614.11 610.992ZM533.873 681.911L614.11 610.992L598.216 593.009L517.979 663.928L533.873 681.911ZM441.133 674.615C464.718 702.969 506.262 706.316 533.873 681.911L517.979 663.928C500.592 679.296 474.583 677.298 459.585 659.267L441.133 674.615ZM387.232 609.814L441.133 674.615L459.585 659.267L405.683 594.466L387.232 609.814ZM433.857 590.14H396.458V614.14H433.857V590.14ZM483.101 539.008C483.101 567.548 460.668 590.14 433.857 590.14V614.14C474.605 614.14 507.101 580.111 507.101 539.008H483.101ZM483.101 363.966V539.008H507.101V363.966H483.101ZM493.865 375.975L495.181 375.966L495.02 351.967L493.703 351.976L493.865 375.975Z" fill="white" mask="url(#path-2-inside-1_222_115)"/>
</svg>
